<?xml version="1.0" encoding="UTF-8"?>
<svg id="Capa_1" data-name="Capa 1" xmlns="http://www.w3.org/2000/svg" version="1.1" viewBox="0 0 560 441">
  <defs>
    <style>
      .cls-1 {
        fill: #000;
        stroke-width: 0px;
      }
    </style>
  </defs>
  <rect class="cls-1" x="145.7" y="287.6" width="12.2" height="70.7"/>
  <path class="cls-1" d="M209.3,348.8c-13.4,0-24.4-10.4-24.4-25.9s10.7-25.9,24.2-25.9,14.9,3.6,20.6,11.3l9.7-7.4c-6.8-9.7-18.1-15-30.2-15-20.9,0-37,16.1-37,37.4s15.6,36.6,36.9,36.6,24.5-5.8,31.3-16.1l-9.3-6.8c-5.4,7.5-13.2,11.8-21.9,11.8Z"/>
  <path class="cls-1" d="M285.3,285.9c-21.6,0-37.4,15.6-37.4,37.6s15.2,36.5,37.3,36.5,25.6-6,32.4-16.1l-8.8-6.7c-6,8.1-13.8,12-23.4,12-14.2,0-24.1-8.5-25.1-23.4h59c.3-1.7.4-3.2.4-5.3,0-20.7-14.3-34.5-34.5-34.5ZM261.1,315.2c2.8-11.8,11.8-18.7,24.2-18.7s20.2,6.4,22,18.7h-46.2Z"/>
  <path class="cls-1" d="M368.1,318.4l-12.4-2.8c-9.7-2.2-12.4-4.9-12.4-9s5-9.6,14.3-9.6,15.5,2.9,21.3,8.8l8.2-8.5c-6.7-7.2-17.3-11.3-28.7-11.3-16.6,0-27.1,8.8-27.1,21.6s6,15.7,20.2,18.9l12.4,2.8c9,2.1,12.1,5.4,12.1,9.6s-5.7,10.2-15.2,10.2-17-3.2-23.7-9.5l-7.8,9.2c7.1,7,18.9,11.3,31,11.3,17.4,0,27.6-8.9,27.6-22.1s-5.6-16.3-19.9-19.5Z"/>
  <rect class="cls-1" x="402.1" y="287.6" width="12.2" height="70.7"/>
  <path class="cls-1" d="M334.1,99.7c-1.6-1.3-3.3-2.5-5-3.6l-13.9,19.2c1.7,1.1,3.4,2.4,5,3.6l13.9-19.2Z"/>
  <path class="cls-1" d="M267.7,105.9l-7.4-22.6c-5.1,1.2-10.1,2.8-14.8,4.8l7.4,22.6c4.7-2.2,9.6-3.8,14.8-4.8Z"/>
  <path class="cls-1" d="M309.8,86.2c-1.7-.6-3.5-1.2-5.3-1.7l-7.3,22.5c1.8.5,3.6,1.1,5.3,1.7l7.3-22.5Z"/>
  <path class="cls-1" d="M232.5,125.7l-19.2-14c-3.1,3.6-5.8,7.4-8.3,11.4l19.2,14c2.3-4.1,5.1-7.9,8.3-11.4Z"/>
  <path class="cls-1" d="M248.5,113l-14-19.2c-4.2,2.6-8.3,5.5-12,8.7l14,19.2c3.6-3.3,7.7-6.3,12-8.7Z"/>
  <path class="cls-1" d="M342.1,152.5l22.5-7.3c-.7-2.3-1.4-4.6-2.2-6.9l-22.5,7.3c.9,2.2,1.6,4.5,2.2,6.9Z"/>
  <path class="cls-1" d="M216.1,175.3c-.2-2.1-.3-4.2-.3-6.4s.1-4.3.3-6.4h-23.7c-.2,2.1-.2,4.2-.2,6.4s0,4.3.2,6.4h23.7Z"/>
  <path class="cls-1" d="M344.2,168.9c0,1.3,0,2.7-.1,4h23.7c0-1.3,0-2.7,0-4s0-2.7,0-4h-23.7c0,1.3.1,2.7.1,4Z"/>
  <path class="cls-1" d="M221.3,142.8l-22.6-7.3c-1.7,4.1-3.1,8.3-4.1,12.7l22.6,7.3c.9-4.4,2.3-8.7,4.1-12.7Z"/>
  <path class="cls-1" d="M333.9,134.1l19.2-13.9c-1.3-1.9-2.6-3.8-4-5.6l-19.2,13.9c1.4,1.8,2.8,3.6,4,5.6Z"/>
  <path class="cls-1" d="M280,104.7c4.1,0,7.1.4,8.2.5,0,0,0,0,0,0v-23.8c-1.3-.1-4.7-.4-8.2-.4s-6.9.3-8.2.4v23.8s0,0,0,0c1.1-.1,4.5-.5,8.2-.5Z"/>
  <path class="cls-1" d="M321.9,217.5c-2.4,2-4.9,3.9-7.5,5.6l14,19.2c2.6-1.7,5.1-3.6,7.5-5.6l-14-19.2Z"/>
  <path class="cls-1" d="M194.8,190.3c1,3.9,2.2,7.8,3.7,11.5l22.6-7.3c-1.6-3.7-2.8-7.5-3.7-11.5l-22.6,7.3Z"/>
  <path class="cls-1" d="M311.6,250.9l-7.3-22.6c-2.9,1.2-5.8,2.1-8.9,2.9l7.3,22.6c3-.8,6-1.8,8.9-2.9Z"/>
  <path class="cls-1" d="M364.8,192l-22.5-7.3c-.7,2.7-1.6,5.4-2.6,8l22.6,7.3c1-2.6,1.9-5.3,2.6-8Z"/>
  <path class="cls-1" d="M353.6,216.9l-19.2-13.9c-1.6,2.5-3.3,4.9-5.2,7.2l19.2,13.9c1.9-2.3,3.6-4.7,5.2-7.2Z"/>
  <path class="cls-1" d="M224,236.7c2.8,2.3,5.7,4.5,8.8,6.4l13.9-19.2c-3.1-1.9-6.1-4-8.8-6.4l-14,19.2Z"/>
  <path class="cls-1" d="M231.6,211.1c-2.5-2.9-4.8-6-6.8-9.3l-19.2,14c2,3.2,4.3,6.3,6.7,9.3l19.2-14Z"/>
  <path class="cls-1" d="M265.1,231.4c-3.4-.8-6.7-1.9-9.9-3.2l-7.3,22.6c3.2,1.3,6.5,2.3,9.8,3.2l7.3-22.6Z"/>
  <path class="cls-1" d="M275.1,256.6c1.6,0,3.3.1,4.9.1s3.3,0,4.9-.1v-23.7c-1.6.1-3.3.2-4.9.2s-3.3,0-4.9-.2v23.7Z"/>
  <path class="cls-1" d="M306,140l12.7-17.4c-2.1-1.7-4.2-3.3-6.5-4.7l-12.7,17.4c2.3,1.4,4.5,2.9,6.5,4.7Z"/>
  <path class="cls-1" d="M315.6,153.4c1,2.3,1.8,4.7,2.3,7.2l20.5-6.7c-.6-2.5-1.4-4.9-2.3-7.2l-20.5,6.7Z"/>
  <path class="cls-1" d="M309,143c1.7,1.9,3.3,4.1,4.6,6.3l17.4-12.7c-1.4-2.2-2.9-4.3-4.6-6.3l-17.4,12.7Z"/>
  <path class="cls-1" d="M259.6,112.1l6.6,20.4c1.1-.4,2.3-.8,3.5-1.1l-6.6-20.4c-1.2.3-2.4.7-3.5,1.1Z"/>
  <path class="cls-1" d="M340.3,168.9c0-1.2,0-2.4-.1-3.6h-21.5c.1,1.2.2,2.4.2,3.6,0,1.2,0,2.4-.2,3.6h21.5c0-1.2.1-2.4.1-3.6Z"/>
  <path class="cls-1" d="M330.7,201.6l-17.4-12.7c-1.2,1.9-2.5,3.8-4,5.5l17.4,12.7c1.4-1.7,2.8-3.6,4-5.5Z"/>
  <path class="cls-1" d="M315.7,184.2l20.5,6.7c.9-2.2,1.6-4.4,2.2-6.7l-20.5-6.7c-.5,2.3-1.2,4.6-2.2,6.7Z"/>
  <path class="cls-1" d="M222,152.4l20.4,6.6c.4-1.4.9-2.9,1.4-4.2l-20.5-6.6c-.5,1.4-1,2.8-1.4,4.2Z"/>
  <path class="cls-1" d="M265.3,204.9l-6.7,20.5c1.8.7,3.6,1.3,5.5,1.8l6.7-20.5c-1.9-.5-3.7-1.1-5.5-1.8Z"/>
  <path class="cls-1" d="M295.9,133.5l6.7-20.5c-2.6-1-5.2-1.9-7.9-2.6l-6.7,20.5c2.8.6,5.4,1.5,7.9,2.6Z"/>
  <path class="cls-1" d="M284.3,108.7c-1.4,0-2.8-.2-4.3-.2s-2.9,0-4.3.2v21.6c1.4-.2,2.8-.2,4.3-.2s2.9,0,4.3.2v-21.6Z"/>
  <path class="cls-1" d="M277,207.6v21.5c1,0,2,0,3,0s2,0,3,0v-21.5c-1,0-2,.1-3,.1s-2,0-3-.1Z"/>
  <path class="cls-1" d="M318,215.7l-12.7-17.4c-1.6,1.4-3.4,2.7-5.3,3.8l12.6,17.4c1.8-1.2,3.6-2.5,5.3-3.8Z"/>
  <path class="cls-1" d="M230,135.1l17.4,12.6c.8-1.2,1.6-2.3,2.5-3.4l-17.4-12.6c-.9,1.1-1.7,2.2-2.5,3.4Z"/>
  <path class="cls-1" d="M294.9,204.8c-1.9.8-3.9,1.4-6,1.9l6.7,20.5c2-.5,4-1.2,6-1.9l-6.7-20.5Z"/>
  <path class="cls-1" d="M219.7,168.9c0,.8,0,1.6,0,2.4h21.5c0-.8,0-1.6,0-2.4,0-.8,0-1.6,0-2.4h-21.5c0,.8,0,1.6,0,2.4Z"/>
  <path class="cls-1" d="M259.4,201.9c-1.6-1-3-2.1-4.4-3.2l-12.6,17.4c1.4,1.1,2.9,2.2,4.4,3.2l12.6-17.4Z"/>
  <path class="cls-1" d="M258.8,136.4l-12.6-17.4c-1.1.7-2.1,1.5-3.2,2.3l12.6,17.4c1-.8,2.1-1.6,3.2-2.3Z"/>
  <path class="cls-1" d="M250.2,193.8c-1.1-1.3-2.1-2.8-3.1-4.2l-17.4,12.6c1,1.5,2,2.9,3.1,4.2l17.4-12.6Z"/>
  <path class="cls-1" d="M221.9,185.2c.4,1.6,1,3.2,1.5,4.7l20.5-6.6c-.6-1.5-1.1-3.1-1.5-4.7l-20.4,6.6Z"/>
</svg>