<?xml version="1.0" encoding="UTF-8"?>
<svg id="Capa_1" data-name="Capa 1" xmlns="http://www.w3.org/2000/svg" version="1.1" viewBox="0 0 560 288">
  <defs>
    <style>
      .cls-1 {
        fill: #5454e9;
      }

      .cls-1, .cls-2 {
        stroke-width: 0px;
      }

      .cls-2 {
        fill: #fff;
      }
    </style>
  </defs>
  <rect class="cls-1" width="560" height="288"/>
  <g>
    <path class="cls-2" d="M248.7,107.5h12.2v70.7h-12.2v-70.7Z"/>
    <path class="cls-2" d="M275.3,143.3c0-21.3,16.1-37.4,37-37.4s23.4,5.3,30.2,15l-9.7,7.4c-5.7-7.7-12.8-11.3-20.6-11.3-13.5,0-24.2,10.7-24.2,25.9s11,25.9,24.4,25.9,16.4-4.3,21.9-11.8l9.3,6.8c-6.8,10.3-18.2,16.1-31.3,16.1-21.3,0-36.9-15.5-36.9-36.6Z"/>
    <path class="cls-2" d="M422.4,145.6h-59c1,14.9,10.9,23.4,25.1,23.4s17.4-3.9,23.4-12l8.8,6.7c-6.8,10.2-18.2,16.1-32.4,16.1-22.1,0-37.3-14.9-37.3-36.5s15.9-37.6,37.4-37.6,34.5,13.8,34.5,34.5-.1,3.6-.4,5.3ZM364.1,135.1h46.2c-1.8-12.2-9.9-18.7-22-18.7s-21.4,6.8-24.2,18.7Z"/>
    <path class="cls-2" d="M432.4,168.6l7.8-9.2c6.7,6.3,15.5,9.5,23.7,9.5s15.2-4.3,15.2-10.2-3.1-7.5-12.1-9.6l-12.4-2.8c-14.2-3.2-20.2-9.3-20.2-18.9s10.6-21.6,27.1-21.6,22,4,28.7,11.3l-8.2,8.5c-5.8-5.8-13.1-8.8-21.3-8.8s-14.3,3.9-14.3,9.6,2.6,6.8,12.4,9l12.4,2.8c14.3,3.2,19.9,9.7,19.9,19.5s-10.2,22.1-27.6,22.1-23.9-4.3-31-11.3Z"/>
    <path class="cls-2" d="M505.1,107.5h12.2v70.7h-12.2v-70.7Z"/>
    <g>
      <path class="cls-2" d="M184.6,74.7c-1.6-1.3-3.3-2.5-5-3.6l-13.9,19.2c1.7,1.1,3.4,2.4,5,3.6l13.9-19.2Z"/>
      <path class="cls-2" d="M118.3,81l-7.4-22.6c-5.1,1.2-10.1,2.8-14.8,4.8l7.4,22.6c4.7-2.2,9.6-3.8,14.8-4.8Z"/>
      <path class="cls-2" d="M160.3,61.3c-1.7-.6-3.5-1.2-5.3-1.7l-7.3,22.5c1.8.5,3.6,1.1,5.3,1.7l7.3-22.5Z"/>
      <path class="cls-2" d="M83.1,100.8l-19.2-14c-3.1,3.6-5.8,7.4-8.3,11.4l19.2,14c2.3-4.1,5.1-7.9,8.3-11.4Z"/>
      <path class="cls-2" d="M99.1,88.1l-14-19.2c-4.2,2.6-8.3,5.5-12,8.7l14,19.2c3.6-3.3,7.7-6.3,12-8.7Z"/>
      <path class="cls-2" d="M192.6,127.6l22.5-7.3c-.7-2.3-1.4-4.6-2.2-6.9l-22.5,7.3c.9,2.2,1.6,4.5,2.2,6.9Z"/>
      <path class="cls-2" d="M66.3,144c0-2.1.1-4.3.3-6.4h-23.7c-.2,2.1-.2,4.2-.2,6.4s0,4.3.2,6.4h23.7c-.2-2.1-.3-4.2-.3-6.4Z"/>
      <path class="cls-2" d="M218.3,140h-23.7c0,1.3.1,2.7.1,4s0,2.7-.1,4h23.7c0-1.3,0-2.7,0-4s0-2.7,0-4Z"/>
      <path class="cls-2" d="M71.9,117.9l-22.6-7.3c-1.7,4.1-3.1,8.3-4.1,12.7l22.6,7.3c.9-4.4,2.3-8.7,4.1-12.7Z"/>
      <path class="cls-2" d="M184.5,109.1l19.2-13.9c-1.3-1.9-2.6-3.8-4-5.6l-19.2,13.9c1.4,1.8,2.8,3.6,4,5.6Z"/>
      <path class="cls-2" d="M138.8,80.3s0,0,0,0v-23.8c-1.3-.1-4.7-.4-8.2-.4s-6.9.3-8.2.4v23.8s0,0,0,0c1.1-.1,4.5-.5,8.2-.5s7.1.4,8.2.5Z"/>
      <path class="cls-2" d="M164.9,198.2l14,19.2c2.6-1.7,5.1-3.6,7.5-5.6l-14-19.2c-2.4,2-4.9,3.9-7.5,5.6Z"/>
      <path class="cls-2" d="M67.9,158l-22.6,7.3c1,3.9,2.2,7.8,3.7,11.5l22.6-7.3c-1.6-3.7-2.8-7.5-3.7-11.5Z"/>
      <path class="cls-2" d="M145.9,206.3l7.3,22.6c3-.8,6-1.8,8.9-2.9l-7.3-22.6c-2.9,1.2-5.8,2.1-8.9,2.9Z"/>
      <path class="cls-2" d="M190.2,167.8l22.6,7.3c1-2.6,1.9-5.3,2.6-8l-22.5-7.3c-.7,2.7-1.6,5.4-2.6,8Z"/>
      <path class="cls-2" d="M179.8,185.2l19.2,13.9c1.9-2.3,3.6-4.7,5.2-7.2l-19.2-13.9c-1.6,2.5-3.3,4.9-5.2,7.2Z"/>
      <path class="cls-2" d="M74.6,211.7c2.8,2.3,5.7,4.5,8.8,6.4l13.9-19.2c-3.1-1.9-6.1-4-8.8-6.4l-14,19.2Z"/>
      <path class="cls-2" d="M75.4,176.9l-19.2,14c2,3.2,4.3,6.3,6.7,9.3l19.2-14c-2.5-2.9-4.8-6-6.8-9.3Z"/>
      <path class="cls-2" d="M98.5,225.8c3.2,1.3,6.5,2.3,9.8,3.2l7.3-22.6c-3.4-.8-6.7-1.9-9.9-3.2l-7.3,22.6Z"/>
      <path class="cls-2" d="M125.6,208v23.7c1.6,0,3.3.1,4.9.1s3.3,0,4.9-.1v-23.7c-1.6.1-3.3.2-4.9.2s-3.3,0-4.9-.2Z"/>
      <path class="cls-2" d="M156.5,115.1l12.7-17.4c-2.1-1.7-4.2-3.3-6.5-4.7l-12.7,17.4c2.3,1.4,4.5,2.9,6.5,4.7Z"/>
      <path class="cls-2" d="M159.5,118.1c1.7,1.9,3.3,4.1,4.6,6.3l17.4-12.7c-1.4-2.2-2.9-4.3-4.6-6.3l-17.4,12.7Z"/>
      <path class="cls-2" d="M110.2,87.2l6.6,20.4c1.1-.4,2.3-.8,3.5-1.1l-6.6-20.4c-1.2.3-2.4.7-3.5,1.1Z"/>
      <path class="cls-2" d="M190.9,144c0-1.2,0-2.4-.1-3.6h-21.5c.1,1.2.2,2.4.2,3.6s0,2.4-.2,3.6h21.5c0-1.2.1-2.4.1-3.6Z"/>
      <path class="cls-2" d="M189,129c-.6-2.5-1.4-4.9-2.3-7.2l-20.5,6.7c1,2.3,1.8,4.7,2.3,7.2l20.5-6.7Z"/>
      <path class="cls-2" d="M188.9,159.3l-20.5-6.7c-.5,2.3-1.2,4.6-2.2,6.7l20.5,6.7c.9-2.2,1.6-4.4,2.2-6.7Z"/>
      <path class="cls-2" d="M181.3,176.7l-17.4-12.7c-1.2,1.9-2.5,3.8-4,5.5l17.4,12.7c1.4-1.7,2.8-3.6,4-5.5Z"/>
      <path class="cls-2" d="M152.1,200.3l-6.7-20.5c-1.9.8-3.9,1.4-6,1.9l6.7,20.5c2-.5,4-1.2,6-1.9Z"/>
      <path class="cls-2" d="M127.5,182.7v21.5c1,0,2,0,3,0s2,0,3,0v-21.5c-1,0-2,.1-3,.1s-2,0-3-.1Z"/>
      <path class="cls-2" d="M110,177c-1.6-1-3-2.1-4.4-3.2l-12.6,17.4c1.4,1.1,2.9,2.2,4.4,3.2l12.6-17.4Z"/>
      <path class="cls-2" d="M109.2,200.4c1.8.7,3.6,1.3,5.5,1.8l6.7-20.5c-1.9-.5-3.7-1.1-5.5-1.8l-6.7,20.5Z"/>
      <path class="cls-2" d="M134.8,83.8c-1.4,0-2.8-.2-4.3-.2s-2.9,0-4.3.2v21.6c1.4-.2,2.8-.2,4.3-.2s2.9,0,4.3.2v-21.6Z"/>
      <path class="cls-2" d="M153.1,88c-2.6-1-5.2-1.9-7.9-2.6l-6.7,20.5c2.8.6,5.4,1.5,7.9,2.6l6.7-20.5Z"/>
      <path class="cls-2" d="M155.9,173.4c-1.6,1.4-3.4,2.7-5.3,3.8l12.6,17.4c1.8-1.2,3.6-2.5,5.3-3.8l-12.7-17.4Z"/>
      <path class="cls-2" d="M94.4,158.4c-.6-1.5-1.1-3.1-1.5-4.7l-20.4,6.6c.4,1.6,1,3.2,1.5,4.7l20.5-6.6Z"/>
      <path class="cls-2" d="M72.5,127.5l20.4,6.6c.4-1.4.9-2.9,1.4-4.2l-20.5-6.6c-.5,1.4-1,2.8-1.4,4.2Z"/>
      <path class="cls-2" d="M109.4,111.4l-12.6-17.4c-1.1.7-2.1,1.5-3.2,2.3l12.6,17.4c1-.8,2.1-1.6,3.2-2.3Z"/>
      <path class="cls-2" d="M70.2,144c0,.8,0,1.6,0,2.4h21.5c0-.8,0-1.6,0-2.4s0-1.6,0-2.4h-21.5c0,.8,0,1.6,0,2.4Z"/>
      <path class="cls-2" d="M80.6,110.2l17.4,12.6c.8-1.2,1.6-2.3,2.5-3.4l-17.4-12.6c-.9,1.1-1.7,2.2-2.5,3.4Z"/>
      <path class="cls-2" d="M100.7,168.9c-1.1-1.3-2.1-2.8-3.1-4.2l-17.4,12.6c1,1.5,2,2.9,3.1,4.2l17.4-12.6Z"/>
    </g>
  </g>
</svg>