<?xml version="1.0" encoding="UTF-8"?>
<svg id="Capa_1" data-name="Capa 1" xmlns="http://www.w3.org/2000/svg" version="1.1" viewBox="0 0 560 288">
  <defs>
    <style>
      .cls-1 {
        fill: #5454e9;
        stroke-width: 0px;
      }
    </style>
  </defs>
  <g>
    <g>
      <path class="cls-1" d="M179.6,71.1c1.7,1.2,3.4,2.4,5,3.6l-13.9,19.2c-1.6-1.3-3.3-2.5-5-3.6l13.9-19.2Z"/>
      <path class="cls-1" d="M179.6,71.1c1.7,1.2,3.4,2.4,5,3.6l-13.9,19.2c-1.6-1.3-3.3-2.5-5-3.6l13.9-19.2Z"/>
    </g>
    <g>
      <path class="cls-1" d="M96.1,63.2l7.4,22.6c4.7-2.2,9.6-3.8,14.8-4.8l-7.4-22.6c-5.1,1.2-10.1,2.8-14.8,4.8Z"/>
      <path class="cls-1" d="M96.1,63.2l7.4,22.6c4.7-2.2,9.6-3.8,14.8-4.8l-7.4-22.6c-5.1,1.2-10.1,2.8-14.8,4.8Z"/>
    </g>
    <g>
      <path class="cls-1" d="M147.7,82.1c1.8.5,3.6,1.1,5.3,1.7l7.3-22.5c-1.7-.6-3.5-1.2-5.3-1.7l-7.3,22.5Z"/>
      <path class="cls-1" d="M147.7,82.1c1.8.5,3.6,1.1,5.3,1.7l7.3-22.5c-1.7-.6-3.5-1.2-5.3-1.7l-7.3,22.5Z"/>
    </g>
    <g>
      <path class="cls-1" d="M74.8,112.2c2.3-4.1,5.1-7.9,8.3-11.4l-19.2-14c-3.1,3.6-5.8,7.4-8.3,11.4l19.2,14Z"/>
      <path class="cls-1" d="M74.8,112.2c2.3-4.1,5.1-7.9,8.3-11.4l-19.2-14c-3.1,3.6-5.8,7.4-8.3,11.4l19.2,14Z"/>
    </g>
    <g>
      <path class="cls-1" d="M87.1,96.8c3.6-3.3,7.7-6.3,12-8.7l-14-19.2c-4.2,2.6-8.3,5.5-12,8.7l14,19.2Z"/>
      <path class="cls-1" d="M87.1,96.8c3.6-3.3,7.7-6.3,12-8.7l-14-19.2c-4.2,2.6-8.3,5.5-12,8.7l14,19.2Z"/>
    </g>
    <g>
      <path class="cls-1" d="M212.9,113.4l-22.5,7.3c.9,2.2,1.6,4.5,2.2,6.9l22.5-7.3c-.7-2.3-1.4-4.6-2.2-6.9Z"/>
      <path class="cls-1" d="M212.9,113.4l-22.5,7.3c.9,2.2,1.6,4.5,2.2,6.9l22.5-7.3c-.7-2.3-1.4-4.6-2.2-6.9Z"/>
    </g>
    <g>
      <path class="cls-1" d="M66.3,144c0-2.1.1-4.3.3-6.4h-23.7c-.2,2.1-.2,4.2-.2,6.4s0,4.3.2,6.4h23.7c-.2-2.1-.3-4.2-.3-6.4Z"/>
      <path class="cls-1" d="M66.3,144c0-2.1.1-4.3.3-6.4h-23.7c-.2,2.1-.2,4.2-.2,6.4s0,4.3.2,6.4h23.7c-.2-2.1-.3-4.2-.3-6.4Z"/>
    </g>
    <g>
      <path class="cls-1" d="M194.8,144c0,1.3,0,2.7-.1,4h23.7c0-1.3,0-2.7,0-4s0-2.7,0-4h-23.7c0,1.3.1,2.7.1,4Z"/>
      <path class="cls-1" d="M194.8,144c0,1.3,0,2.7-.1,4h23.7c0-1.3,0-2.7,0-4s0-2.7,0-4h-23.7c0,1.3.1,2.7.1,4Z"/>
    </g>
    <g>
      <path class="cls-1" d="M67.7,130.6c.9-4.4,2.3-8.7,4.1-12.7l-22.6-7.3c-1.7,4.1-3.1,8.3-4.1,12.7l22.6,7.3Z"/>
      <path class="cls-1" d="M67.7,130.6c.9-4.4,2.3-8.7,4.1-12.7l-22.6-7.3c-1.7,4.1-3.1,8.3-4.1,12.7l22.6,7.3Z"/>
    </g>
    <g>
      <path class="cls-1" d="M180.4,103.6c1.4,1.8,2.8,3.6,4,5.6l19.2-13.9c-1.3-1.9-2.6-3.8-4-5.6l-19.2,13.9Z"/>
      <path class="cls-1" d="M180.4,103.6c1.4,1.8,2.8,3.6,4,5.6l19.2-13.9c-1.3-1.9-2.6-3.8-4-5.6l-19.2,13.9Z"/>
    </g>
    <g>
      <path class="cls-1" d="M122.3,56.5v23.8s0,0,0,0c1.1-.1,4.5-.5,8.2-.5s7.1.4,8.2.5c0,0,0,0,0,0v-23.8c-1.3-.1-4.7-.4-8.2-.4s-6.9.3-8.2.4Z"/>
      <path class="cls-1" d="M122.3,56.5v23.8s0,0,0,0c1.1-.1,4.5-.5,8.2-.5s7.1.4,8.2.5c0,0,0,0,0,0v-23.8c-1.3-.1-4.7-.4-8.2-.4s-6.9.3-8.2.4Z"/>
    </g>
    <g>
      <path class="cls-1" d="M172.4,192.6c-2.4,2-4.9,3.9-7.5,5.6l14,19.2c2.6-1.7,5.1-3.6,7.5-5.6l-14-19.2Z"/>
      <path class="cls-1" d="M172.4,192.6c-2.4,2-4.9,3.9-7.5,5.6l14,19.2c2.6-1.7,5.1-3.6,7.5-5.6l-14-19.2Z"/>
    </g>
    <g>
      <path class="cls-1" d="M71.6,169.5c-1.6-3.7-2.8-7.5-3.7-11.5l-22.6,7.3c1,3.9,2.2,7.8,3.7,11.5l22.6-7.3Z"/>
      <path class="cls-1" d="M71.6,169.5c-1.6-3.7-2.8-7.5-3.7-11.5l-22.6,7.3c1,3.9,2.2,7.8,3.7,11.5l22.6-7.3Z"/>
    </g>
    <g>
      <path class="cls-1" d="M154.8,203.5c-2.9,1.2-5.8,2.1-8.9,2.9l7.3,22.6c3-.8,6-1.8,8.9-2.9l-7.3-22.6Z"/>
      <path class="cls-1" d="M154.8,203.5c-2.9,1.2-5.8,2.1-8.9,2.9l7.3,22.6c3-.8,6-1.8,8.9-2.9l-7.3-22.6Z"/>
    </g>
    <g>
      <path class="cls-1" d="M192.8,159.8c-.7,2.7-1.6,5.4-2.6,8l22.6,7.3c1-2.6,1.9-5.3,2.6-8l-22.5-7.3Z"/>
      <path class="cls-1" d="M192.8,159.8c-.7,2.7-1.6,5.4-2.6,8l22.6,7.3c1-2.6,1.9-5.3,2.6-8l-22.5-7.3Z"/>
    </g>
    <g>
      <path class="cls-1" d="M185,178c-1.6,2.5-3.3,4.9-5.2,7.2l19.2,13.9c1.9-2.3,3.6-4.7,5.2-7.2l-19.2-13.9Z"/>
      <path class="cls-1" d="M185,178c-1.6,2.5-3.3,4.9-5.2,7.2l19.2,13.9c1.9-2.3,3.6-4.7,5.2-7.2l-19.2-13.9Z"/>
    </g>
    <g>
      <path class="cls-1" d="M83.4,218.2l13.9-19.2c-3.1-1.9-6.1-4-8.8-6.4l-14,19.2c2.8,2.3,5.7,4.5,8.8,6.4Z"/>
      <path class="cls-1" d="M83.4,218.2l13.9-19.2c-3.1-1.9-6.1-4-8.8-6.4l-14,19.2c2.8,2.3,5.7,4.5,8.8,6.4Z"/>
    </g>
    <g>
      <path class="cls-1" d="M82.2,186.2c-2.5-2.9-4.8-6-6.8-9.3l-19.2,14c2,3.2,4.3,6.3,6.7,9.3l19.2-14Z"/>
      <path class="cls-1" d="M82.2,186.2c-2.5-2.9-4.8-6-6.8-9.3l-19.2,14c2,3.2,4.3,6.3,6.7,9.3l19.2-14Z"/>
    </g>
    <g>
      <path class="cls-1" d="M115.7,206.5c-3.4-.8-6.7-1.9-9.9-3.2l-7.3,22.6c3.2,1.3,6.5,2.3,9.8,3.2l7.3-22.6Z"/>
      <path class="cls-1" d="M115.7,206.5c-3.4-.8-6.7-1.9-9.9-3.2l-7.3,22.6c3.2,1.3,6.5,2.3,9.8,3.2l7.3-22.6Z"/>
    </g>
    <g>
      <path class="cls-1" d="M135.5,231.7v-23.7c-1.6.1-3.3.2-4.9.2s-3.3,0-4.9-.2v23.7c1.6,0,3.3.1,4.9.1s3.3,0,4.9-.1Z"/>
      <path class="cls-1" d="M135.5,231.7v-23.7c-1.6.1-3.3.2-4.9.2s-3.3,0-4.9-.2v23.7c1.6,0,3.3.1,4.9.1s3.3,0,4.9-.1Z"/>
    </g>
    <path class="cls-1" d="M120.3,106.5c-1.2.3-2.4.7-3.5,1.1l-6.6-20.4c1.2-.4,2.3-.8,3.5-1.1l6.6,20.4ZM130.5,83.7c-1.4,0-2.9,0-4.3.2v21.6c1.4-.2,2.8-.2,4.3-.2,1.5,0,2.9,0,4.3.2v-21.6c-1.4,0-2.8-.2-4.3-.2ZM153.1,88c-2.6-1-5.2-1.9-7.9-2.6l-6.7,20.5c2.8.6,5.4,1.5,7.9,2.6l6.7-20.5ZM169.2,97.7c-2.1-1.7-4.2-3.3-6.5-4.7l-12.7,17.4c2.3,1.4,4.5,2.9,6.5,4.7l12.7-17.4ZM96.7,94c-1.1.7-2.1,1.5-3.2,2.3l12.6,17.4c1-.8,2.1-1.6,3.2-2.3l-12.6-17.4ZM181.5,111.8c-1.4-2.2-2.9-4.3-4.6-6.3l-17.4,12.7c1.7,1.9,3.3,4.1,4.6,6.3l17.4-12.7ZM72.5,127.5l20.4,6.6c.4-1.4.9-2.9,1.4-4.2l-20.5-6.6c-.5,1.4-1,2.8-1.4,4.2ZM169.2,147.6h21.5c0-1.2.1-2.4.1-3.6s0-2.4-.1-3.6h-21.5c.1,1.2.2,2.4.2,3.6,0,1.2,0,2.4-.2,3.6ZM83,106.8c-.9,1.1-1.7,2.2-2.5,3.4l17.4,12.6c.8-1.2,1.6-2.3,2.5-3.4l-17.4-12.6ZM91.8,141.6h-21.5c0,.8,0,1.6,0,2.4s0,1.6,0,2.4h21.5c0-.8,0-1.6,0-2.4s0-1.6,0-2.4ZM92.9,191.1c1.4,1.1,2.9,2.2,4.4,3.2l12.6-17.4c-1.6-1-3-2.1-4.4-3.2l-12.6,17.4ZM109.2,200.4c1.8.7,3.6,1.3,5.5,1.8l6.7-20.5c-1.9-.5-3.7-1.1-5.5-1.8l-6.7,20.5ZM80.2,177.3c1,1.5,2,2.9,3.1,4.2l17.4-12.6c-1.1-1.3-2.1-2.8-3.1-4.2l-17.4,12.6ZM72.4,160.3c.4,1.6,1,3.2,1.5,4.7l20.5-6.6c-.6-1.5-1.1-3.1-1.5-4.7l-20.4,6.6ZM130.5,204.3c1,0,2,0,3,0v-21.5c-1,0-2,.1-3,.1s-2,0-3-.1v21.5c1,0,2,0,3,0ZM189,129c-.6-2.5-1.4-4.9-2.3-7.2l-20.5,6.7c1,2.3,1.8,4.7,2.3,7.2l20.5-6.7ZM146.2,202.3c2-.5,4-1.2,6-1.9l-6.7-20.5c-1.9.8-3.9,1.4-6,1.9l6.7,20.5ZM186.7,166c.9-2.2,1.6-4.4,2.2-6.7l-20.5-6.7c-.5,2.3-1.2,4.6-2.2,6.7l20.5,6.7ZM177.3,182.1c1.4-1.7,2.8-3.6,4-5.5l-17.4-12.7c-1.2,1.9-2.5,3.8-4,5.5l17.4,12.7ZM163.3,194.7c1.8-1.2,3.6-2.5,5.3-3.8l-12.7-17.4c-1.6,1.4-3.4,2.7-5.3,3.8l12.6,17.4Z"/>
  </g>
  <g>
    <path class="cls-1" d="M248.7,128h12.2v70.7h-12.2v-70.7Z"/>
    <path class="cls-1" d="M275.3,163.8c0-21.3,16.1-37.4,37-37.4s23.4,5.3,30.2,15l-9.7,7.4c-5.7-7.7-12.8-11.3-20.6-11.3-13.5,0-24.2,10.7-24.2,25.9s11,25.9,24.4,25.9,16.4-4.3,21.9-11.8l9.3,6.8c-6.8,10.3-18.2,16.1-31.3,16.1-21.3,0-36.9-15.5-36.9-36.6Z"/>
    <path class="cls-1" d="M422.4,166.1h-59c1,14.9,10.9,23.4,25.1,23.4s17.4-3.9,23.4-12l8.8,6.7c-6.8,10.2-18.2,16.1-32.4,16.1-22.1,0-37.3-14.9-37.3-36.5s15.9-37.6,37.4-37.6,34.5,13.8,34.5,34.5-.1,3.6-.4,5.3ZM364.1,155.5h46.2c-1.8-12.2-9.9-18.7-22-18.7s-21.4,6.8-24.2,18.7Z"/>
    <path class="cls-1" d="M432.4,189.1l7.8-9.2c6.7,6.3,15.5,9.5,23.7,9.5s15.2-4.3,15.2-10.2-3.1-7.5-12.1-9.6l-12.4-2.8c-14.2-3.2-20.2-9.3-20.2-18.9s10.6-21.6,27.1-21.6,22,4,28.7,11.3l-8.2,8.5c-5.8-5.8-13.1-8.8-21.3-8.8s-14.3,3.9-14.3,9.6,2.6,6.8,12.4,9l12.4,2.8c14.3,3.2,19.9,9.7,19.9,19.5s-10.2,22.1-27.6,22.1-23.9-4.3-31-11.3Z"/>
    <path class="cls-1" d="M505.1,128h12.2v70.7h-12.2v-70.7Z"/>
    <g>
      <path class="cls-1" d="M248.7,101.1v-12.3h3.7v12c0,3.7,1.8,5.5,4.9,5.5s4.9-1.8,4.9-5.5v-12h3.7v12.3c0,5.5-3.3,8.6-8.6,8.6s-8.6-3.1-8.6-8.6Z"/>
      <path class="cls-1" d="M284.7,100.3v9h-3.5v-8.3c0-2.6-1.2-3.9-3.2-3.9s-2.6.5-3.7,1.8v10.4h-3.5v-15h3.5v1.3c1.2-1,2.9-1.6,4.6-1.6,3.5,0,5.8,2.3,5.8,6.4Z"/>
      <path class="cls-1" d="M288.9,90c0-1.2,1-2.2,2.3-2.2s2.2,1,2.2,2.2-1,2.3-2.2,2.3-2.3-1-2.3-2.3ZM289.4,94.3h3.5v15h-3.5v-15Z"/>
      <path class="cls-1" d="M312.1,94.3l-6.2,15h-3.8l-6.2-15h3.9l4.2,10.7,4.2-10.7h3.9Z"/>
      <path class="cls-1" d="M329.2,102.7h-11.9c.3,2.6,2,4,4.6,4s3.2-.6,4.4-2.1l2.5,1.9c-1.6,2.1-4,3.3-7,3.3-4.9,0-8.1-3.2-8.1-7.8s3.3-8,8-8,7.5,2.9,7.5,7.4,0,.9,0,1.3ZM317.5,100h8.3c-.4-2.1-1.8-3.1-3.9-3.1s-3.8,1.1-4.3,3.1Z"/>
      <path class="cls-1" d="M342.5,94.1l-.2,3.3c-.5,0-1-.1-1.4-.1-1.7,0-3.2.8-4.1,2.3v9.8h-3.5v-15h3.5v1.6c1-1.3,2.6-2,4.2-2s1,0,1.6.2Z"/>
      <path class="cls-1" d="M344.9,107.5l1.8-2.6c1.6,1.2,3.3,1.8,5,1.8s2.6-.7,2.6-1.6-.5-1.2-2.1-1.6l-2.6-.6c-3-.7-4.3-2-4.3-4.1s2.3-4.8,6-4.8,4.7.8,6.2,2.2l-1.9,2.5c-1.4-1.1-2.9-1.7-4.5-1.7s-2.4.6-2.4,1.5.5,1.1,2.1,1.5l2.6.6c3.1.7,4.3,2.1,4.3,4.2s-2.3,4.9-6.2,4.9-5.1-.9-6.7-2.2Z"/>
      <path class="cls-1" d="M361,90c0-1.2,1-2.2,2.3-2.2s2.2,1,2.2,2.2-1,2.3-2.2,2.3-2.3-1-2.3-2.3ZM361.5,94.3h3.5v15h-3.5v-15Z"/>
      <path class="cls-1" d="M384.3,87.6v21.7h-3.5v-1.1c-1.1,1-2.7,1.5-4.3,1.5-4.1,0-7.5-3.3-7.5-7.9s3.4-7.9,7.5-7.9,3.2.5,4.3,1.5v-7.8h3.5ZM380.8,104.7v-5.8c-1-1.2-2.4-1.7-3.8-1.7-2.5,0-4.4,1.8-4.4,4.6s1.9,4.6,4.4,4.6,2.8-.6,3.8-1.8Z"/>
      <path class="cls-1" d="M403.5,94.3v15h-3.5v-1.1c-1.1,1-2.7,1.5-4.3,1.5-4.1,0-7.5-3.3-7.5-7.9s3.4-7.9,7.5-7.9,3.2.5,4.3,1.5v-1.1h3.5ZM400,104.7v-5.8c-1-1.2-2.4-1.7-3.8-1.7-2.5,0-4.4,1.8-4.4,4.6s1.9,4.6,4.4,4.6,2.8-.6,3.8-1.8Z"/>
      <path class="cls-1" d="M422.8,87.6v21.7h-3.5v-1.1c-1.1,1-2.7,1.5-4.3,1.5-4.1,0-7.5-3.3-7.5-7.9s3.4-7.9,7.5-7.9,3.2.5,4.3,1.5v-7.8h3.5ZM419.3,104.7v-5.8c-1-1.2-2.4-1.7-3.8-1.7-2.5,0-4.4,1.8-4.4,4.6s1.9,4.6,4.4,4.6,2.8-.6,3.8-1.8Z"/>
    </g>
  </g>
</svg>